<svg xmlns="http://www.w3.org/2000/svg" xmlns:xlink="http://www.w3.org/1999/xlink" width="225" height="40" viewBox="0 0 225 40">
  <defs>
    <linearGradient id="linear-gradient" x1="0.083" y1="0.942" x2="1.293" y2="-0.281" gradientUnits="objectBoundingBox">
      <stop offset="0" stop-color="#6362d7"/>
      <stop offset="1" stop-color="#ff8fe2"/>
    </linearGradient>
    <linearGradient id="linear-gradient-2" x1="0.191" y1="1.16" x2="0.717" y2="-0.096" gradientUnits="objectBoundingBox">
      <stop offset="0" stop-color="#00b56c"/>
      <stop offset="0.216" stop-color="#1dbe75"/>
      <stop offset="0.681" stop-color="#68d58c"/>
      <stop offset="1" stop-color="#9ee69d"/>
    </linearGradient>
    <linearGradient id="linear-gradient-3" x1="-0.492" y1="0.5" x2="1" y2="0.5" gradientUnits="objectBoundingBox">
      <stop offset="0" stop-color="#ff9ab6"/>
      <stop offset="0.989" stop-color="#f03295"/>
      <stop offset="1" stop-color="#f03295"/>
    </linearGradient>
    <linearGradient id="linear-gradient-4" x1="0.161" y1="0.899" x2="1.133" gradientUnits="objectBoundingBox">
      <stop offset="0" stop-color="#f09376"/>
      <stop offset="1" stop-color="#f0db79"/>
    </linearGradient>
  </defs>
  <g id="Gruppe_2524" data-name="Gruppe 2524" transform="translate(-1101 -5789)">
    <circle id="Ellipse_307" data-name="Ellipse 307" cx="20" cy="20" r="20" transform="translate(1101 5789)" fill="url(#linear-gradient)"/>
    <circle id="Ellipse_308" data-name="Ellipse 308" cx="20" cy="20" r="20" transform="translate(1161 5789)" fill="url(#linear-gradient-2)"/>
    <circle id="Ellipse_309" data-name="Ellipse 309" cx="20" cy="20" r="20" transform="translate(1223 5789)" fill="url(#linear-gradient-3)"/>
    <circle id="Ellipse_310" data-name="Ellipse 310" cx="20" cy="20" r="20" transform="translate(1286 5789)" fill="url(#linear-gradient-4)"/>
    <path id="facebook" d="M12.461,5.57,12.152,8.5H9.81V17H6.292V8.5H4.539V5.57H6.292V3.806C6.292,1.423,7.283,0,10.1,0h2.341V2.93H10.976c-1.093,0-1.166.413-1.166,1.176V5.57h2.651Z" transform="translate(1112.461 5801)" fill="#fff"/>
    <path id="skype" d="M16.2,9.943A8.1,8.1,0,0,0,16.333,8.5,7.81,7.81,0,0,0,7.056.8,4.449,4.449,0,0,0,4.5,0,4.505,4.505,0,0,0,0,4.5,4.454,4.454,0,0,0,.8,7.057,8.091,8.091,0,0,0,.667,8.5a7.811,7.811,0,0,0,9.277,7.7A4.449,4.449,0,0,0,12.5,17,4.505,4.505,0,0,0,17,12.5,4.454,4.454,0,0,0,16.2,9.943ZM12.5,16a3.473,3.473,0,0,1-2.133-.729l-.182-.14-.225.047a7.249,7.249,0,0,1-1.461.155A6.84,6.84,0,0,1,1.666,8.5a7.181,7.181,0,0,1,.156-1.461l.046-.225-.14-.182a3.5,3.5,0,0,1,4.9-4.9l.182.14.225-.047A7.3,7.3,0,0,1,8.5,1.667,6.84,6.84,0,0,1,15.333,8.5a7.181,7.181,0,0,1-.156,1.461l-.046.225.14.182A3.469,3.469,0,0,1,16,12.5,3.5,3.5,0,0,1,12.5,16Zm.219-5.761c0,2.115-2.042,3.094-4,3.094-2.344,0-4.3-1.042-4.3-2.323A1,1,0,0,1,5.469,9.917c1.115,0,1.219,1.6,3.146,1.6.916,0,1.51-.4,1.51-.937,0-.667-.573-.771-1.5-1L7.1,9.209c-1.52-.365-2.688-.99-2.688-2.74,0-2.114,2.094-2.9,3.9-2.9,1.969,0,3.958.781,3.958,1.979a1.075,1.075,0,0,1-1.083,1.136c-1.011,0-1.042-1.2-2.678-1.2-.916,0-1.5.249-1.5.8,0,.605.594.74,1.387.928l1.082.25c1.48.333,3.241.957,3.241,2.769Z" transform="translate(1173 5801)" fill="#fff"/>
    <path id="instagram" d="M13,0H4A4.012,4.012,0,0,0,0,4v9a4.012,4.012,0,0,0,4,4h9a4.012,4.012,0,0,0,4-4V4A4.012,4.012,0,0,0,13,0Zm3,13a3,3,0,0,1-3,3H4a3,3,0,0,1-3-3V7H4.207A4.691,4.691,0,0,0,3.75,9a4.75,4.75,0,0,0,9.5,0,4.691,4.691,0,0,0-.457-2H16ZM12.25,9A3.75,3.75,0,1,1,8.5,5.25,3.754,3.754,0,0,1,12.25,9Zm-.1-3a4.686,4.686,0,0,0-7.3,0H1V4A3,3,0,0,1,4,1h9a3,3,0,0,1,3,3V6Zm2.3-3.278v1.3a.544.544,0,0,1-.542.543H12.544A.546.546,0,0,1,12,4.02v-1.3a.544.544,0,0,1,.544-.543h1.368a.544.544,0,0,1,.542.543Z" transform="translate(1298 5801)" fill="#fff"/>
    <path id="linkedin" d="M.7,5.823H4.136V16.146H.7V5.823ZM2.438.854A1.791,1.791,0,0,0,.5,2.636,1.773,1.773,0,0,0,2.4,4.417h.021A1.787,1.787,0,1,0,2.438.854ZM12.552,5.583A3.388,3.388,0,0,0,9.458,7.292V5.823H6.031s.042.969,0,10.323H9.458V10.385a2.614,2.614,0,0,1,.114-.843,1.879,1.879,0,0,1,1.762-1.25c1.238,0,1.738.948,1.738,2.333v5.521H16.5V10.229C16.5,7.062,14.812,5.583,12.552,5.583Z" transform="translate(1234.5 5800.146)" fill="#fff"/>
  </g>
</svg>
